<?xml version="1.0" encoding="UTF-8"?>
<svg id="Layer_1" xmlns="http://www.w3.org/2000/svg" version="1.1" xmlns:xlink="http://www.w3.org/1999/xlink" viewBox="0 0 595.28 841.89">
  <!-- Generator: Adobe Illustrator 29.4.0, SVG Export Plug-In . SVG Version: 2.1.0 Build 152)  -->
  <defs>
    <style>
      .st0 {
        fill: url(#linear-gradient2);
      }

      .st1 {
        fill: #231f20;
      }

      .st2 {
        fill: #ffe300;
      }

      .st3 {
        fill: url(#linear-gradient1);
      }

      .st4 {
        fill: none;
      }

      .st5 {
        fill: url(#linear-gradient4);
      }

      .st6 {
        fill: url(#linear-gradient5);
      }

      .st7 {
        fill: url(#linear-gradient3);
      }

      .st8 {
        fill: #034ea2;
      }

      .st9 {
        fill: url(#linear-gradient6);
      }

      .st10 {
        fill: #76bc21;
      }

      .st11 {
        fill: url(#linear-gradient);
      }
    </style>
    <linearGradient id="linear-gradient" x1="292.95" y1="405.91" x2="292.95" y2="244.09" gradientUnits="userSpaceOnUse">
      <stop offset="0" stop-color="#76bc21"/>
      <stop offset=".23" stop-color="#77bb47"/>
      <stop offset=".81" stop-color="#034ea2"/>
    </linearGradient>
    <linearGradient id="linear-gradient1" x1="272.66" y1="310.05" x2="272.66" y2="300.79" xlink:href="#linear-gradient"/>
    <linearGradient id="linear-gradient2" x1="315.28" y1="279.28" x2="315.28" y2="270.02" xlink:href="#linear-gradient"/>
    <linearGradient id="linear-gradient3" x1="357.93" y1="310.05" x2="357.93" y2="300.79" xlink:href="#linear-gradient"/>
    <linearGradient id="linear-gradient4" x1="256.34" y1="360.71" x2="256.34" y2="350.42" xlink:href="#linear-gradient"/>
    <linearGradient id="linear-gradient5" x1="374.24" y1="360.71" x2="374.24" y2="350.42" xlink:href="#linear-gradient"/>
    <linearGradient id="linear-gradient6" x1="331.5" y1="396.61" x2="331.5" y2="376.04" xlink:href="#linear-gradient"/>
  </defs>
  <g>
    <path class="st1" d="M221.15,492.01h-1.99l-8.19,9.29c-.62.72-1.3,1.51-1.99,2.4h-.1v-11.69h-1.65v23.09h1.65v-9.56l2.36-2.6,8.77,12.16h1.95l-9.59-13.29,8.77-9.8Z"/>
    <path class="st1" d="M232.22,498.29c-2.67,0-4.76,1.47-5.66,3.32h-.07l-.1-2.95h-1.54c.1,1.3.14,2.43.14,3.94v12.51h1.65v-10.21c0-.51.1-1.06.2-1.44.65-2.16,2.64-3.8,4.93-3.8,3.39,0,4.56,2.71,4.56,5.72v9.73h1.65v-9.87c0-6.17-4.18-6.96-5.76-6.96Z"/>
    <path class="st1" d="M257.58,506.75c0-5.04-3.08-8.46-7.64-8.46-4.08,0-7.78,3.12-7.78,8.74,0,5.14,3.29,8.46,7.54,8.46h.03c3.63,0,7.85-2.64,7.85-8.74ZM249.8,514.12h-.04c-3.36,0-5.96-3.08-5.96-7.2,0-3.53,1.88-7.26,6.1-7.26s6.03,4.15,6.03,7.16c0,4.22-2.71,7.3-6.13,7.3Z"/>
    <path class="st1" d="M271.39,500.34c.45,1.85,1.03,3.6,1.71,5.59l3.12,9.18h1.4l5.48-16.45h-1.68l-2.91,9.32c-.65,1.99-1.17,3.63-1.51,5.17h-.07c-.41-1.54-.93-3.22-1.61-5.24l-3.15-9.25h-1.54l-3.29,9.35c-.65,1.88-1.23,3.63-1.65,5.14h-.07c-.38-1.58-.86-3.22-1.41-5.14l-2.77-9.35h-1.68l5.07,16.45h1.44l3.26-9.11c.69-1.92,1.3-3.74,1.78-5.65h.07Z"/>
    <rect class="st1" x="286.67" y="490.75" width="1.65" height="24.36"/>
    <path class="st1" d="M300.42,515.45c2.88,0,4.56-.72,5.17-1.06l-.41-1.27c-.93.45-2.16.92-4.56.92-3.39,0-6.27-2.09-6.27-7.33h12.13c.07-.31.07-.55.07-.99,0-2.37-1.03-7.44-6.41-7.44-4.25,0-7.4,3.43-7.4,8.91,0,4.83,2.95,8.26,7.68,8.26ZM299.94,499.66c3.98,0,4.93,3.46,4.9,5.76h-10.38c.31-2.54,1.85-5.76,5.48-5.76Z"/>
    <path class="st1" d="M322.55,511.99l.14,3.12h1.47c-.1-1.17-.14-2.6-.14-3.8v-20.56h-1.65v10.45h-.07c-.72-1.44-2.53-2.91-5.38-2.91-4.04,0-7.44,3.43-7.4,8.91,0,4.9,3.02,8.29,7.09,8.29,3.05,0,5-1.68,5.86-3.49h.07ZM322.38,508.46c0,.51-.03.96-.17,1.37-.69,2.71-2.91,4.28-5.28,4.28-3.91,0-5.76-3.39-5.76-7.09,0-4.25,2.26-7.37,5.86-7.37,2.67,0,4.62,1.82,5.17,4.01.14.48.17,1.06.17,1.51v3.29Z"/>
    <path class="st1" d="M341.37,501.44h-.07c-.68-1.37-2.3-3.15-5.55-3.15-3.63,0-7.4,3.01-7.4,8.74,0,4.49,2.91,8.09,7.06,8.09,2.95,0,4.87-1.51,5.72-3.19h.07v2.33c0,4.87-2.5,6.65-5.96,6.65-2.13,0-3.74-.62-4.9-1.37l-.58,1.3c1.27.96,3.36,1.44,5.24,1.44s4.08-.51,5.59-1.95c1.37-1.3,2.26-3.39,2.26-7.61v-9.8c0-1.71.04-3.01.14-4.25h-1.51l-.1,2.78ZM341.2,508.29c0,.58-.1,1.2-.27,1.75-.86,2.33-2.91,3.7-5.11,3.7-3.87,0-5.83-3.19-5.83-6.89,0-4.35,2.4-7.2,5.89-7.2,2.71,0,4.42,1.78,5.11,3.74.17.48.21.99.21,1.61v3.29Z"/>
    <path class="st1" d="M354.84,515.45c2.88,0,4.56-.72,5.17-1.06l-.41-1.27c-.93.45-2.16.92-4.56.92-3.39,0-6.27-2.09-6.27-7.33h12.13c.07-.31.07-.55.07-.99,0-2.37-1.03-7.44-6.41-7.44-4.25,0-7.4,3.43-7.4,8.91,0,4.83,2.95,8.26,7.68,8.26ZM354.36,499.66c3.97,0,4.93,3.46,4.9,5.76h-10.38c.31-2.54,1.85-5.76,5.48-5.76Z"/>
    <path class="st1" d="M385.75,511.31c1.51-1.88,2.4-4.66,3.02-8.36h-1.54c-.55,3.43-1.27,5.69-2.4,7.4-1.71-1.95-4.35-4.94-6.72-7.71v-.1c3.94-1.95,5.38-3.8,5.38-6.31,0-2.78-1.95-4.59-4.42-4.59-3.36,0-5.21,2.71-5.21,5.45,0,1.65.72,3.32,1.99,5.04v.1c-2.57,1.51-4.56,3.63-4.56,6.82,0,3.6,2.74,6.44,6.51,6.44,2.43,0,4.69-.75,7.02-2.98,1.1,1.1,1.78,1.85,2.54,2.6h2.06c-1.37-1.44-2.47-2.6-3.67-3.8ZM375.4,496.95c0-2.13,1.17-3.98,3.39-3.98h.03c2.23,0,3.12,1.78,3.12,3.43,0,2.33-1.89,3.74-4.66,5.21-.96-1.3-1.89-2.71-1.89-4.66ZM378.21,514.15h-.03c-3.05,0-5.24-2.23-5.24-5.31s2.23-4.73,3.67-5.58c2.98,3.46,6,6.71,7.3,8.26-1.34,1.54-3.32,2.64-5.69,2.64Z"/>
    <path class="st1" d="M409.46,515.45c2.84,0,5.07-.58,6.24-1.17l-.48-1.3c-1.34.65-3.26,1.06-5.21,1.06-6.2,0-9.77-4.04-9.77-10.31,0-6.65,3.8-10.69,10.04-10.69,1.95,0,3.63.41,4.8.99l.51-1.37c-.68-.34-2.4-.99-5.35-.99-7.3,0-11.72,5.17-11.72,12.03,0,8.19,5.35,11.75,10.93,11.75Z"/>
    <path class="st1" d="M419.71,515.11h1.64v-9.08c0-.55.04-1.1.14-1.58.45-2.64,2.06-4.59,4.32-4.59.31,0,.55,0,.79.04v-1.54c-.2-.04-.44-.07-.68-.07-2.23,0-3.94,1.61-4.66,3.7h-.1l-.07-3.32h-1.51c.1,1.61.14,3.29.14,4.93v11.51Z"/>
    <path class="st1" d="M441.13,514.39l-.41-1.27c-.93.45-2.16.92-4.56.92-3.39,0-6.27-2.09-6.27-7.33h12.13c.07-.31.07-.55.07-.99,0-2.37-1.03-7.44-6.41-7.44-4.25,0-7.4,3.43-7.4,8.91,0,4.83,2.95,8.26,7.68,8.26,2.88,0,4.56-.72,5.17-1.06ZM435.47,499.66c3.97,0,4.93,3.46,4.9,5.76h-10.38c.31-2.54,1.85-5.76,5.48-5.76Z"/>
    <path class="st1" d="M456.92,515.11c-.21-1.27-.24-2.6-.24-3.91v-6.44c0-2.91-.93-6.48-5.69-6.48-1.47,0-3.32.41-4.83,1.4l.51,1.2c1.2-.86,2.71-1.23,4.15-1.23,3.91-.03,4.21,3.22,4.21,4.83v.44c-6.72-.07-10.04,2.23-10.04,6.03,0,2.19,1.51,4.52,4.83,4.52,2.64,0,4.45-1.47,5.28-2.74h.07l.24,2.36h1.51ZM455.04,509.83c0,.27-.04.65-.17.99-.55,1.61-2.12,3.29-4.86,3.29-1.71,0-3.29-1.06-3.29-3.43,0-3.94,4.73-4.49,8.33-4.39v3.53Z"/>
    <path class="st1" d="M462.78,510.38c0,1.68.28,3.08,1.03,3.94.62.75,1.61,1.13,2.81,1.13.99,0,1.75-.17,2.3-.38l-.21-1.23c-.41.14-1.03.24-1.89.24-1.75,0-2.4-1.3-2.4-3.39v-10.69h4.69v-1.34h-4.69v-3.63l-1.65.62v3.02h-2.78v1.34h2.78v10.38Z"/>
    <path class="st1" d="M473.72,495.37c.82,0,1.34-.65,1.34-1.4s-.55-1.44-1.3-1.44-1.34.69-1.34,1.44.51,1.4,1.27,1.4h.03Z"/>
    <rect class="st1" x="472.93" y="498.66" width="1.65" height="16.45"/>
    <path class="st1" d="M486.94,508.87c-.62,1.58-1.23,3.01-1.68,4.39h-.07c-.44-1.41-.96-2.78-1.61-4.39l-3.84-10.21h-1.75l6.44,16.45h1.44l6.68-16.45h-1.71l-3.9,10.21Z"/>
    <rect class="st1" x="495.92" y="498.66" width="1.65" height="16.45"/>
    <path class="st1" d="M496.75,492.53c-.75,0-1.34.69-1.34,1.44s.51,1.4,1.27,1.4h.03c.82,0,1.34-.65,1.34-1.4s-.55-1.44-1.3-1.44Z"/>
    <path class="st1" d="M505.52,495.03l-1.65.62v3.02h-2.78v1.34h2.78v10.38c0,1.68.27,3.08,1.03,3.94.62.75,1.61,1.13,2.81,1.13.99,0,1.75-.17,2.3-.38l-.21-1.23c-.41.14-1.03.24-1.89.24-1.75,0-2.4-1.3-2.4-3.39v-10.69h4.69v-1.34h-4.69v-3.63Z"/>
    <path class="st1" d="M524.61,498.66l-4.01,10.66c-.51,1.34-.92,2.64-1.27,3.63h-.07c-.31-1.03-.75-2.36-1.2-3.53l-4.32-10.76h-1.75l6.1,15.25c.14.34.21.58.21.72,0,.17-.07.38-.21.72-.82,1.95-1.92,3.32-2.74,4.14-.99.93-2.06,1.51-2.88,1.82l.51,1.37c.38-.14,1.58-.62,2.88-1.71,2.16-1.88,3.56-4.93,5.55-10.04l4.94-12.27h-1.75Z"/>
    <polygon class="st1" points="208.88 537.07 218.1 537.07 218.1 535.7 208.88 535.7 208.88 526.82 218.65 526.82 218.65 525.45 207.24 525.45 207.24 548.55 219.2 548.55 219.2 547.18 208.88 547.18 208.88 537.07"/>
    <path class="st1" d="M235.89,532.1h-1.65v10.24c0,.65-.14,1.3-.31,1.82-.72,1.64-2.47,3.32-4.87,3.32-3.26,0-4.35-2.57-4.35-6.13v-9.25h-1.64v9.56c0,6.2,3.53,7.26,5.62,7.26,2.91,0,4.8-1.78,5.62-3.32h.07l.1,2.95h1.54c-.1-1.27-.14-2.57-.14-4.01v-12.44Z"/>
    <path class="st1" d="M243.08,535.42h-.1l-.07-3.32h-1.51c.1,1.61.14,3.29.14,4.93v11.51h1.65v-9.08c0-.55.04-1.1.14-1.58.45-2.64,2.06-4.59,4.32-4.59.31,0,.55,0,.79.04v-1.54c-.2-.03-.44-.07-.68-.07-2.23,0-3.94,1.61-4.66,3.7Z"/>
    <path class="st1" d="M257.89,531.72c-4.08,0-7.78,3.12-7.78,8.74,0,5.14,3.29,8.46,7.54,8.46h.03c3.63,0,7.85-2.64,7.85-8.74,0-5.04-3.08-8.46-7.64-8.46ZM257.75,547.55h-.04c-3.36,0-5.96-3.08-5.96-7.2,0-3.53,1.89-7.26,6.1-7.26s6.03,4.15,6.03,7.16c0,4.21-2.71,7.3-6.13,7.3Z"/>
    <path class="st1" d="M277.56,531.72c-2.88,0-4.9,1.34-6.1,3.49h-.07l-.1-3.12h-1.58c.1,1.57.14,3.19.14,5.24v17.99h1.64v-9.45h.07c1.13,1.99,3.22,3.05,5.58,3.05,3.98,0,7.47-3.01,7.47-8.87,0-4.83-2.84-8.33-7.06-8.33ZM277.04,547.55c-2.54,0-4.73-1.65-5.41-4.18-.1-.41-.14-.86-.14-1.3v-3.22c0-.44.14-.96.24-1.4.72-2.71,3.05-4.35,5.45-4.35,3.74,0,5.79,3.32,5.79,7.03,0,4.39-2.16,7.44-5.93,7.44Z"/>
    <path class="st1" d="M295,531.72c-4.25,0-7.4,3.43-7.4,8.91,0,4.83,2.95,8.26,7.67,8.26,2.88,0,4.56-.72,5.18-1.06l-.41-1.27c-.93.45-2.16.93-4.56.93-3.39,0-6.27-2.09-6.27-7.33h12.13c.07-.31.07-.55.07-.99,0-2.36-1.03-7.44-6.41-7.44ZM289.31,538.85c.31-2.53,1.85-5.76,5.48-5.76,3.98,0,4.93,3.46,4.9,5.76h-10.38Z"/>
    <path class="st1" d="M316.01,538.2c0-2.91-.93-6.48-5.69-6.48-1.47,0-3.32.41-4.83,1.4l.51,1.2c1.2-.85,2.71-1.23,4.15-1.23,3.91-.03,4.21,3.22,4.21,4.83v.44c-6.72-.07-10.04,2.23-10.04,6.03,0,2.19,1.51,4.52,4.83,4.52,2.64,0,4.45-1.47,5.28-2.74h.07l.24,2.37h1.51c-.21-1.27-.24-2.6-.24-3.91v-6.44ZM314.36,543.27c0,.27-.04.65-.17.99-.55,1.61-2.13,3.29-4.87,3.29-1.71,0-3.29-1.06-3.29-3.43,0-3.94,4.73-4.49,8.33-4.39v3.53Z"/>
    <path class="st1" d="M328.72,531.72c-2.67,0-4.76,1.47-5.65,3.32h-.07l-.1-2.95h-1.54c.1,1.3.14,2.43.14,3.94v12.51h1.65v-10.21c0-.51.1-1.06.2-1.44.65-2.16,2.64-3.8,4.93-3.8,3.39,0,4.56,2.71,4.56,5.72v9.73h1.65v-9.87c0-6.17-4.18-6.96-5.76-6.96Z"/>
    <path class="st1" d="M361.32,539.12c0,4.69-1.88,7.17-5.43,7.17-3.34,0-5.19-2.55-5.19-7.17v-13.87h-3.4v13.8c0,6.49,3.01,10.06,8.49,10.06,3.34,0,8.93-1.33,8.93-10.2v-13.66h-3.4v13.87Z"/>
    <path class="st1" d="M378.04,531.39c-2.65,0-4.47,1.36-5.39,2.77l-.15-2.39h-3.06l.02.21c.1,1.27.14,2.6.14,4.47v12.29h3.4v-10.17c0-.51.07-1,.2-1.35.45-1.47,1.81-2.95,3.86-2.95,3.01,0,3.64,2.56,3.64,4.71v9.75h3.4v-10.1c0-6.9-5.04-7.25-6.05-7.25Z"/>
    <rect class="st1" x="388.77" y="531.77" width="3.4" height="16.97"/>
    <path class="st1" d="M390.48,525.22c-1.19,0-2.08.89-2.08,2.08s.86,2.04,2.01,2.04c.63,0,1.2-.22,1.58-.62.36-.37.55-.88.53-1.43,0-1.22-.84-2.08-2.04-2.08Z"/>
    <path class="st1" d="M404.24,541.22c-.53,1.45-.93,2.62-1.27,3.76-.3-1.12-.68-2.3-1.21-3.76l-3.3-9.45h-3.64l6.4,16.85.05.13h3.14l6.56-16.71.1-.27h-3.57l-3.27,9.45Z"/>
    <path class="st1" d="M420.05,531.39c-4.69,0-7.97,3.76-7.97,9.14s3.28,8.55,8.35,8.55c2.72,0,4.54-.57,5.6-1.04l.15-.07-.61-2.54-.21.09c-1.03.44-2.29.84-4.52.84-3.32,0-5.36-2-5.49-5.37h11.62l.04-.3c.04-.32.09-.75.09-1.29,0-3.7-1.84-8.01-7.05-8.01ZM415.41,538.45c.27-1.77,1.46-4.51,4.4-4.51,1.14,0,2.06.35,2.73,1.04,1.09,1.11,1.24,2.76,1.25,3.47h-8.39Z"/>
    <path class="st1" d="M438.15,531.39c-1.95,0-3.68,1.24-4.55,3.2l-.09-2.82h-3.03v.21c.11,1.41.15,3,.15,5.16v11.61h3.37v-9.04c0-.49.07-.95.13-1.37.41-2.26,1.92-3.71,3.85-3.71.39,0,.68.03.98.1l.24.05v-3.24l-.15-.04c-.31-.08-.56-.11-.9-.11Z"/>
    <path class="st1" d="M447.6,538.74c-2.09-.8-3.03-1.37-3.03-2.63s1.04-2.07,2.58-2.07,2.74.58,3.29.93l.21.13.89-2.57-.14-.08c-1.12-.66-2.68-1.06-4.18-1.06-3.48,0-5.92,2.08-5.92,5.06,0,2.14,1.56,3.83,4.51,4.88,2.18.81,2.96,1.56,2.96,2.87,0,1.42-1.13,2.27-3.03,2.27-1.44,0-2.98-.59-3.87-1.17l-.21-.14-.88,2.69.14.08c1.25.74,2.99,1.16,4.76,1.16,3.89,0,6.4-2.02,6.4-5.16,0-2.44-1.34-3.99-4.48-5.18Z"/>
    <path class="st1" d="M457.44,525.22c-1.19,0-2.08.89-2.08,2.08s.86,2.04,2.01,2.04c.63,0,1.2-.22,1.58-.62.36-.37.55-.88.53-1.43,0-1.22-.84-2.08-2.04-2.08Z"/>
    <rect class="st1" x="455.74" y="531.77" width="3.4" height="16.97"/>
    <path class="st1" d="M467.95,526.95l-3.33.89v3.93h-2.57v2.69h2.57v8.85c0,2.17.39,3.58,1.21,4.44.76.87,1.94,1.33,3.4,1.33,1.1,0,2.08-.15,2.75-.42l.13-.05-.16-2.64-.23.06c-.34.09-.9.2-1.7.2-1.45,0-2.07-.9-2.07-3.02v-8.75h4.32v-2.69h-4.32v-4.82Z"/>
    <path class="st1" d="M482.68,541.63c-.27.8-.52,1.63-.74,2.37-.06.2-.12.39-.17.58-.25-.87-.59-1.93-.92-2.89l-3.68-9.93h-3.71l6.24,15.54c.14.38.19.59.19.72s-.11.39-.22.64c-.57,1.28-1.49,2.5-2.48,3.29-1.06.89-2.15,1.3-2.57,1.44l-.18.06.86,2.89.17-.03c.45-.09,2.07-.47,3.79-2,1.98-1.71,3.43-4.35,5.74-10.46l4.62-12.09h-3.61l-3.33,9.86Z"/>
  </g>
  <polyline class="st2" points="319.36 324.96 299.34 325.06 292.94 305.63 286.91 325.06 266.51 324.95 282.98 336.7 276.68 355.77 292.92 343.9 309.21 355.77 303.05 336.68 319.36 324.96"/>
  <path class="st11" d="M319.36,263.43l-16.32,11.72,6.17,19.09-16.29-11.87-16.24,11.87,6.29-19.06-16.47-11.75,20.4.11,6.03-19.44,6.4,19.43,20.02-.09M362.01,294.2l-20.02.09-6.4-19.43-6.03,19.44-20.4-.11,16.47,11.75-6.3,19.06,16.24-11.87,16.29,11.87-6.17-19.09,16.32-11.72M378.33,344.34l-20.02.09-6.4-19.43-6.03,19.44-20.4-.11,16.47,11.75-6.29,19.06,16.24-11.87,16.29,11.87-6.17-19.09,16.32-11.72M260.42,344.34l-20.02.09-6.4-19.43-6.03,19.44-20.4-.11,16.47,11.75-6.29,19.06,16.24-11.87,16.29,11.87-6.17-19.09,16.32-11.72M309.16,355.77l-6,19.34-9.86.04-10.18-.06-6.37-19.33-6.03,19.44-20.4-.11,16.47,11.75,26.14,19-.02.07.06-.04.06.04.06-.12,26.19-18.97,16.32-11.71-20.02.09-6.4-19.43ZM335.58,375.1h0s0,0,0,0h0ZM276.74,294.2l-20.02.09-6.4-19.43-6.03,19.44-20.4-.11,16.47,11.75-6.3,19.06,16.24-11.87,16.29,11.87-6.17-19.09,16.32-11.72"/>
  <polygon class="st4" points="272.65 305.42 272.61 305.42 272.6 305.45 272.65 305.42"/>
  <polygon class="st4" points="305.13 305.44 305.12 305.41 305.08 305.41 305.13 305.44"/>
  <g>
    <g>
      <path class="st10" d="M154.48,433.94l14.73-28.57c.12-.24.11-.53-.03-.76-.14-.23-.39-.37-.66-.37h-14.2c-.31,0-.6.19-.72.48l-8.88,21.32-1.1,2.92c-.28.75-.56,1.5-.85,2.25v-26.2c0-.43-.35-.78-.78-.78h-12.92c-.43,0-.78.35-.78.78v66.46c0,.43.35.78.78.78h12.92c.43,0,.78-.34.78-.78v-21.89l2.03-3.72,9.08,25.86c.11.31.4.52.73.52h14.1c.26,0,.5-.13.64-.34.14-.22.17-.48.08-.73l-14.95-37.24Z"/>
      <path class="st10" d="M197.8,421.91c-.88-.22-1.62-.22-2.95-.22-3.61,0-7.05,2.36-9.3,6.29l-.47-4.8c-.04-.4-.37-.7-.77-.7h-11.24c-.21,0-.41.09-.56.24-.15.15-.22.36-.22.57.18,4.12.39,9.49.39,14.46v33.72c0,.43.35.78.78.78h13.01c.43,0,.78-.34.78-.78v-24.45c0-1.88.17-3.53.46-4.61,1.38-4.68,4.71-6.35,7.14-6.35,1.05,0,1.88,0,2.57.17.24.06.48,0,.67-.14.19-.15.3-.37.3-.61v-12.82c0-.36-.24-.67-.59-.75Z"/>
      <path class="st10" d="M219.8,421.69c-12.02,0-20.1,10.7-20.1,26.61s7.69,24.54,21.09,24.54c4.8,0,10.01-.85,13.59-2.22.35-.14.56-.5.49-.87l-1.77-9.27c-.04-.22-.18-.41-.37-.53-.2-.11-.43-.13-.64-.06-2.01.7-5.19,1.54-8.91,1.54-5.86,0-9.03-2.93-9.44-8.7h22.06c.37,0,.68-.25.76-.61.3-1.4.41-3.26.41-6.87,0-14.97-6.25-23.55-17.15-23.55ZM219.01,432.61c3.87,0,4.56,6.12,4.64,9.49h-9.85c.26-4.71,1.94-9.49,5.21-9.49Z"/>
      <path class="st10" d="M276.68,460.43v-17.95c0-8.93-1.85-20.79-17.83-20.79-6.67,0-12.46,2.02-15.38,3.76-.3.18-.45.54-.35.87l2.37,8.68c.07.23.24.43.47.52.23.09.48.07.69-.06,2.91-1.8,5.91-2.64,9.45-2.64,3.83,0,6.02,2.09,6.02,5.73v.32c-10.36.32-22.09,5.37-22.09,18.71,0,8.96,5.68,15.47,13.5,15.47,4.13,0,7.67-1.59,10.31-4.61l.46,3.16c.06.38.38.66.77.66h11.63s.02,0,.03,0c.43,0,.78-.34.78-.78,0-.12-.03-.24-.08-.34-.49-2.8-.74-6.4-.74-10.7ZM257.66,462.02c-1.33,0-3.86-1.22-3.86-5.83,0-5.58,4.56-7.13,8.7-7.37v7.57c0,.74-.09,1.45-.26,2.04-.82,2.65-2.98,3.59-4.58,3.59Z"/>
      <path class="st10" d="M314.97,422.48h12.92c.43,0,.78.35.78.78v48.21c0,.43-.35.78-.78.78h-12.92c-.43,0-.78-.35-.78-.78v-48.21c0-.43.35-.78.78-.78Z"/>
      <path class="st10" d="M371.17,422.31h-12.72c-.38,0-.7.27-.76.65l-3.75,21.51c-.47,3.1-.88,4.28-1.25,7.08-.45-2.99-.91-4.3-1.35-7.09l-4.43-21.49c-.06-.37-.39-.65-.77-.65h-12.93c-.24,0-.47.12-.62.31-.15.19-.2.44-.13.68l13.11,48.21c.09.34.4.57.75.57h11.93c.35,0,.66-.24.75-.58l12.92-48.21c.06-.23.01-.48-.14-.67-.15-.19-.37-.31-.62-.31Z"/>
      <path class="st8" d="M409.27,459.45h-16.38v-16.39h14.41c.43,0,.78-.35.78-.78v-10.75c0-.43-.35-.78-.78-.78h-14.41v-13.73h15.2c.43,0,.78-.35.78-.78v-11.24c0-.43-.35-.78-.78-.78h-28.89c-.43,0-.78.35-.78.78v66.46c0,.43.35.78.78.78h30.07c.43,0,.78-.34.78-.78v-11.24c0-.43-.35-.78-.78-.78Z"/>
      <path class="st8" d="M456.72,404.24h-12.92c-.43,0-.78.35-.78.78v43.19c0,10.58-3.01,11.94-5.63,11.94-4.57,0-5.53-6.49-5.53-11.94v-43.19c0-.43-.35-.78-.78-.78h-12.92c-.43,0-.78.35-.78.78v41.02c0,18.17,6.58,27,20.1,27s20-9.37,20-27.1v-40.92c0-.43-.35-.78-.78-.78Z"/>
    </g>
    <path class="st10" d="M293.08,417.09l-.06-.04-.06.04.02-.07-7.41-5.38v10.84h-4.94c-.43,0-.78.35-.78.78v9.17c0,.43.35.78.78.78h4.94v22c0,7.21,1.27,11.37,4.38,14.37,2.27,2.17,5.57,3.27,9.81,3.27,3.09,0,5.97-.32,8.1-.91.34-.1.57-.41.57-.76l-.1-10.06c0-.23-.1-.45-.28-.59-.17-.15-.41-.21-.63-.17-1.11.2-2.04.28-3.21.28-1.78,0-4.15-.65-4.15-6.22v-21.21h8.69c.43,0,.78-.35.78-.78v-9.17c0-.43-.35-.78-.78-.78h-8.69v-10.52l-6.92,5.01-.06.12Z"/>
  </g>
  <polygon class="st3" points="272.66 305.42 272.66 305.42 272.66 305.42 272.66 305.42"/>
  <polygon class="st0" points="315.28 274.65 315.28 274.65 315.28 274.65 315.28 274.65"/>
  <polygon class="st7" points="357.93 305.42 357.93 305.42 357.93 305.42 357.93 305.42"/>
  <polygon class="st5" points="256.34 355.56 256.34 355.56 256.34 355.56 256.34 355.56"/>
  <polygon class="st6" points="374.24 355.56 374.24 355.56 374.24 355.56 374.24 355.56"/>
  <polygon class="st9" points="331.5 386.33 331.5 386.32 331.5 386.33 331.5 386.33"/>
</svg>