<?xml version="1.0" encoding="UTF-8"?> <svg xmlns="http://www.w3.org/2000/svg" id="Layer_1" data-name="Layer 1" viewBox="0 0 1026.13 1024"><defs><style>.cls-1{fill:#fff;}.cls-2{fill:#0361a7;}.cls-3{fill:#0865a9;}.cls-4{fill:#0965a9;}.cls-5{fill:#0b66aa;}.cls-6{fill:#0a66aa;}.cls-7{fill:#0261a7;}.cls-8{fill:#0b67aa;}</style></defs><rect class="cls-1" width="1026.13" height="1024"></rect><path class="cls-2" d="M2249.47,131.43V471.17H2243q-128.61,0-257.23-.07c-3.66,0-5.86.72-7.77,4.3-3.89,7.27-12.4,10.36-20.17,8.21a18.24,18.24,0,0,1-.07-35.14c7.83-2.18,16.28.81,20.21,8.09,2,3.61,4.2,4.25,7.81,4.25q123.63-.12,247.25-.06h5l-317-316.32V554.64h36.11V508.15h57.46v46.43h36.44V508.17h57.58v46.35h36.44V508.25h57.64v46.43h36.43V508h46.92V460.9h46.72V424.27h-46.17V366.59h46.25V330.17h-46.3V272.39h46.31V236.17h-46.18V178.32H2333V141.9h-46.51V94.81h-47V47.91h-36.69V94.37h-57.33V47.88H2108.9V94.41h-57.44V47.88h-36.54V94.39h-57.49V47.83h-36.55V94.61h-47V141.7h-46.7v36.24h46.18v57.85h-46.21v36.39h46.25v57.6h-46.14V366.4h46.17v57.66h-46.19v36.46h46.56c0,10.46.13,20.24-.07,30-.06,3.34.74,5.23,4,6.92,7.2,3.76,10.5,12.4,8.45,20.09a18.22,18.22,0,0,1-35.11.62c-2.29-7.92.86-16.75,8.21-20.64,3.44-1.83,4.25-3.89,4.11-7.39-.25-6.12-.07-12.26-.07-18.86h-46.65V413.84H1863V377.25H1816.6V319.61H1863V283.15h-46.22V225.36h46.3V189h-46.31V131h46.48V84.24h47.14v-47h57.34V83.8h36.43V37.33h57.37v46.4h36.79V37.25h57.35V83.81h36.45V37.32h57.35V83.88h47.35v47.21h46.65v57.67h-46.3V225h46.29V282.9h-46.28v36.42h46.33v57.82h-46.37v36.54h46.37v57.45h-46.66v47.09h-47V565H2192.4V518.64h-36.49v46.3h-57.46v-46.3H2062v46.28H2004.5V518.67H1968v46.25h-57.29V131.43Z" transform="translate(-1559.94 128)"></path><path class="cls-3" d="M1894.14,612.12l34.2,91c1.07-2.53,1.79-4.05,2.37-5.62,8.81-23.89,17.86-47.69,26.21-71.75,2-5.78,4.83-7.57,10.31-6.73,1.28.2,2.6.2,4.65.34l-42.25,113.79-2.09.28C1916.17,703,1904.79,672.61,1893,641c-12.91,31.53-25.33,61.88-37.75,92.23l-2.13.12c-12.25-37.87-24.51-75.74-36.87-113.92,1.64-.2,2.44-.38,3.25-.39,2.82,0,5.63,0,8.85,0,8.91,27.66,17.77,55.18,27.13,84.27l36.76-91.14Z" transform="translate(-1559.94 128)"></path><path class="cls-4" d="M2169,614.77c15.12,37.48,30.24,75,45.69,113.3-4,0-7.2.35-10.22-.17-1.32-.22-2.81-2-3.41-3.43q-5.62-13.34-10.8-26.86c-1.11-2.89-2.63-4-5.83-4q-16.72.3-33.44,0c-3.24-.06-4.63,1.12-5.72,4-3,8.1-6.81,15.94-9.49,24.15-1.73,5.29-4.59,7.12-9.77,6.28-1.41-.23-2.86-.21-5.09-.35,15.53-38.1,30.83-75.61,46.13-113.12Zm15.2,68c-5.44-13.75-10.66-27-16.31-41.27l-16.49,41.27Z" transform="translate(-1559.94 128)"></path><path class="cls-5" d="M2033.6,629.51v33.67h41.67v10.45h-41.51v43.69h42.51v10.49h-53.83V619.26h53.74v10.25Z" transform="translate(-1559.94 128)"></path><path class="cls-6" d="M2343.62,619.36V727.69h-10.71V619.36Z" transform="translate(-1559.94 128)"></path><path class="cls-7" d="M2272.2,727.87c-1.6.07-2.74.16-3.89.18-1.81,0-3.62,0-5.89,0V660h9.78Z" transform="translate(-1559.94 128)"></path><path class="cls-8" d="M2267,648.24a7.79,7.79,0,0,1,.23-15.57,7.93,7.93,0,0,1,7.84,7.92A7.85,7.85,0,0,1,2267,648.24Z" transform="translate(-1559.94 128)"></path></svg> 